<?xml version="1.0" encoding="UTF-8"?>
<svg width="34px" height="34px" viewBox="0 0 34 34" version="1.1" xmlns="http://www.w3.org/2000/svg" xmlns:xlink="http://www.w3.org/1999/xlink">
    <title>Icons/34px/Custom/Apache-Kafka@2x</title>
    <defs>
        <rect id="path-1" x="0" y="0" width="34" height="34" rx="4"></rect>
    </defs>
    <g id="Icons/34px/Custom/Apache-Kafka" stroke="none" stroke-width="1" fill="none" fill-rule="evenodd">
        <g id="Arch-Category_Customer-Enablement_64">
            <mask id="mask-2" fill="white">
                <use xlink:href="#path-1"></use>
            </mask>
            <use id="Mask" fill="#FFFFFF" xlink:href="#path-1"></use>
        </g>
        <g id="Group" transform="translate(2.6656, 2.5289)">
            <path d="M15.58,0.623538291 L25.9773684,6.62646171 C26.6456747,7.01230855 27.0573684,7.72538291 27.0573684,8.49707658 L27.0573684,20.5029234 C27.0573684,21.2746171 26.6456747,21.9876915 25.9773684,22.3735383 L15.58,28.3764617 C14.9116937,28.7623085 14.0883063,28.7623085 13.42,28.3764617 L3.02263165,22.3735383 C2.35432532,21.9876915 1.94263165,21.2746171 1.94263165,20.5029234 L1.94263165,8.49707658 C1.94263165,7.72538291 2.35432532,7.01230855 3.02263165,6.62646171 L13.42,0.623538291 C14.0883063,0.237691454 14.9116937,0.237691454 15.58,0.623538291 Z" id="Polygon" fill="#2E3955"></path>
            <path d="M12.7226637,7.32265625 C13.9405925,7.32265625 14.9279189,8.24554558 14.9279189,9.38398725 C14.9279189,10.3422851 14.2283344,11.1478502 13.2805083,11.3787961 L13.2804208,12.3271204 C13.7072584,12.4331349 14.0832434,12.6558119 14.3669265,12.9564075 L15.1544674,12.3605005 C15.1069869,12.1922357 15.0816954,12.0155492 15.0816954,11.8333412 C15.0816954,10.6948995 16.0690218,9.77201018 17.2869507,9.77201018 C18.5048795,9.77201018 19.4922059,10.6948995 19.4922059,11.8333412 C19.4922059,12.9717829 18.5048795,13.8946722 17.2869507,13.8946722 C16.6667846,13.8946722 16.1064095,13.6553837 15.7057325,13.2701933 L14.8722336,13.9003469 C14.9021378,14.0356789 14.9178495,14.1758611 14.9178495,14.3194735 C14.9178495,14.4905626 14.8955506,14.6567833 14.8535213,14.815735 L15.731062,15.2892034 C16.1309708,14.9101108 16.6868201,14.6751249 17.3013854,14.6751249 C18.5193142,14.6751249 19.5066406,15.5980142 19.5066406,16.7364559 C19.5066406,17.8748976 18.5193142,18.7977869 17.3013854,18.7977869 C16.0834566,18.7977869 15.0961302,17.8748976 15.0961302,16.7364559 C15.0961302,16.5435242 15.1244863,16.3567832 15.1775153,16.1796755 L14.3289755,15.7217343 C14.0500823,16.002491 13.6884911,16.2104734 13.2804208,16.3118266 L13.2807195,17.26922 C14.222964,17.5036917 14.9171511,18.3067313 14.9171511,19.2613252 C14.9171511,20.3997669 13.9298247,21.3226562 12.7118959,21.3226562 C11.493967,21.3226562 10.5066406,20.3997669 10.5066406,19.2613252 C10.5066406,18.2954558 11.2173238,17.4847422 12.1765641,17.2611501 L12.1767745,16.3195349 C11.2177812,16.0957816 10.5073391,15.2851791 10.5073391,14.3194735 C10.5073391,13.3537679 11.2177812,12.5431654 12.1767745,12.3194121 L12.1768217,11.3816867 C11.222905,11.1546407 10.5174085,10.3463257 10.5174085,9.38398725 C10.5174085,8.24554558 11.5047349,7.32265625 12.7226637,7.32265625 Z M12.7118959,18.2306597 C12.1029314,18.2306597 11.6092682,18.6921044 11.6092682,19.2613252 C11.6092682,19.8305461 12.1029314,20.2919907 12.7118959,20.2919907 C13.3208603,20.2919907 13.8145235,19.8305461 13.8145235,19.2613252 C13.8145235,18.6921044 13.3208603,18.2306597 12.7118959,18.2306597 Z M17.3013854,15.7057904 C16.692421,15.7057904 16.1987578,16.1672351 16.1987578,16.7364559 C16.1987578,17.3056768 16.692421,17.7671214 17.3013854,17.7671214 C17.9103498,17.7671214 18.404013,17.3056768 18.404013,16.7364559 C18.404013,16.1672351 17.9103498,15.7057904 17.3013854,15.7057904 Z M12.7125943,13.288808 C12.1036299,13.288808 11.6099667,13.7502527 11.6099667,14.3194735 C11.6099667,14.8886943 12.1036299,15.350139 12.7125943,15.350139 C13.3215587,15.350139 13.8152219,14.8886943 13.8152219,14.3194735 C13.8152219,13.7502527 13.3215587,13.288808 12.7125943,13.288808 Z M17.2869507,10.8026757 C16.6779862,10.8026757 16.184323,11.2641203 16.184323,11.8333412 C16.184323,12.402562 16.6779862,12.8640067 17.2869507,12.8640067 C17.8959151,12.8640067 18.3895783,12.402562 18.3895783,11.8333412 C18.3895783,11.2641203 17.8959151,10.8026757 17.2869507,10.8026757 Z M12.7226637,8.35332175 C12.1136993,8.35332175 11.6200361,8.81476641 11.6200361,9.38398725 C11.6200361,9.95320809 12.1136993,10.4146528 12.7226637,10.4146528 C13.3316281,10.4146528 13.8252913,9.95320809 13.8252913,9.38398725 C13.8252913,8.81476641 13.3316281,8.35332175 12.7226637,8.35332175 Z" id="Oval-4" fill="#FFFFFF"></path>
        </g>
    </g>
</svg>