<?xml version="1.0" encoding="UTF-8"?>
<svg width="34px" height="34px" viewBox="0 0 34 34" version="1.1" xmlns="http://www.w3.org/2000/svg" xmlns:xlink="http://www.w3.org/1999/xlink">
    <title>Icons/34px/Custom/Federated User@2x</title>
    <defs>
        <rect id="path-1" x="0" y="0" width="34" height="34" rx="4"></rect>
    </defs>
    <g id="Icons/34px/Custom/Federated-User" stroke="none" stroke-width="1" fill="none" fill-rule="evenodd">
        <g id="Arch-Category_Customer-Enablement_64">
            <mask id="mask-2" fill="white">
                <use xlink:href="#path-1"></use>
            </mask>
            <use id="Mask" fill="#658BD3" xlink:href="#path-1"></use>
            <g id="Group" mask="url(#mask-2)">
                <g transform="translate(9, 3.5725)">
                    <g id="" transform="translate(13.6408, 0)">
                        <path d="M7.99987526,0.8 L7.99987526,6.4 C7.99987526,6.84225006 7.6416256,7.2 7.19987526,7.2 C6.75812492,7.2 6.39987526,6.84225006 6.39987526,6.4 L6.39987526,2.73250008 L1.36487541,7.76750031 C1.20937538,7.92249985 1.00462532,8 0.799875259,8 C0.595125198,8 0.390375137,7.921875 0.234375,7.765625 C-0.078125,7.453125 -0.078125,6.946875 0.234375,6.634375 L5.26987495,1.6 L1.59987488,1.6 C1.15812492,1.6 0.799874878,1.24250031 0.799874878,0.8 C0.799874878,0.357499695 1.15812492,0 1.59987488,0 L7.19987488,0 C7.64237518,0 7.99987526,0.357499695 7.99987526,0.8 L7.99987526,0.8 Z" id="Path" fill="#FFFFFF" fill-rule="nonzero"></path>
                    </g>
                    <g id="" transform="translate(0, 5.856)">
                        <path d="M7.7875,8.9 C10.2454301,8.9 12.2375,6.90758212 12.2375,4.45 C12.2375,1.99241788 10.2454301,0 7.7875,0 C5.32957042,0 3.3375,1.99241788 3.3375,4.45 C3.3375,6.90758212 5.32957042,8.9 7.7875,8.9 Z M9.55011761,10.56875 L6.02488292,10.56875 C2.69816018,10.56875 0,13.2665627 0,16.5936324 C0,17.259047 0.539562649,17.7989575 1.20497669,17.7989575 L14.3707193,17.7989575 C15.0361328,17.8 15.575,17.2611328 15.575,16.5936324 C15.575,13.2665627 12.8771873,10.56875 9.55011761,10.56875 Z" id="Shape" fill="#FFFFFF" fill-rule="nonzero"></path>
                    </g>
                </g>
            </g>
        </g>
    </g>
</svg>