<?xml version="1.0" encoding="UTF-8"?>
<svg width="34px" height="34px" viewBox="0 0 34 34" version="1.1" xmlns="http://www.w3.org/2000/svg" xmlns:xlink="http://www.w3.org/1999/xlink">
    <title>Icons/34px/Apps/Github@2x</title>
    <defs>
        <rect id="path-1" x="0" y="0" width="34" height="34" rx="4"></rect>
    </defs>
    <g id="Icons/34px/Apps/Github" stroke="none" stroke-width="1" fill="none" fill-rule="evenodd">
        <mask id="mask-2" fill="white">
            <use xlink:href="#path-1"></use>
        </mask>
        <use id="Mask" fill="#F1F4FB" xlink:href="#path-1"></use>
        <g id="" mask="url(#mask-2)" fill="#2E3955" fill-rule="nonzero">
            <g transform="translate(6.3437, 6.0938)" id="Shape">
                <path d="M7.12851602,16.732031 C7.12851602,16.6332021 7.01679701,16.5644531 6.88789076,16.5773432 C6.76328164,16.5773432 6.66445339,16.6460935 6.66445339,16.732031 C6.66445339,16.8308599 6.76328164,16.8996089 6.90507865,16.8867187 C7.02968776,16.8867187 7.12851602,16.8179685 7.12851602,16.732031 Z M5.79218763,16.5386716 C5.76210964,16.6246091 5.84804714,16.7234367 5.97695339,16.7492182 C6.0886724,16.792187 6.21757865,16.7492182 6.24335951,16.6632807 C6.26914036,16.5773432 6.1875,16.4785156 6.05859375,16.4398427 C5.94687474,16.4097641 5.82226562,16.4527328 5.79218763,16.5386703 L5.79218763,16.5386716 Z M7.69140625,16.4656242 C7.56679714,16.4957029 7.48085964,16.5773432 7.49374974,16.6761708 C7.50664049,16.7621083 7.61835885,16.8179672 7.7472651,16.7878898 C7.87187421,16.7578112 7.95781171,16.6761708 7.94492161,16.5902333 C7.93203086,16.508593 7.81601536,16.4527328 7.69140625,16.4656242 Z M10.5187508,0 C4.55898464,0 0,4.52460885 0,10.484375 C0,15.2496091 2.99921888,19.3273432 7.28320313,20.7625005 C7.83320326,20.8613281 8.02656263,20.5218753 8.02656263,20.2425784 C8.02656263,19.9761716 8.01367188,18.5066411 8.01367188,17.6042974 C8.01367188,17.6042974 5.00585938,18.2488286 4.37421888,16.3238292 C4.37421888,16.3238292 3.88437474,15.0734383 3.17968684,14.7511727 C3.17968684,14.7511727 2.19570208,14.0765628 3.24843645,14.0894542 C3.24843645,14.0894542 4.31835872,14.1753917 4.90703046,15.1980474 C5.84804583,16.8566414 7.42499882,16.379688 8.03945273,16.096094 C8.13828099,15.408594 8.41757786,14.9316406 8.72695273,14.6480466 C6.32499987,14.3816398 3.90156198,14.033594 3.90156198,9.89999974 C3.90156198,8.71835911 4.22812474,8.12539023 4.91562474,7.36914062 C4.80390573,7.08984375 4.43867135,5.93828177 5.02734309,4.45156276 C5.92538971,4.17226589 7.99218684,5.61171901 7.99218684,5.61171901 C8.85156184,5.37109375 9.77538997,5.24648464 10.6906245,5.24648464 C11.605859,5.24648464 12.5296871,5.37109375 13.3890621,5.61171901 C13.3890621,5.61171901 15.4558592,4.16796875 16.3539059,4.45156276 C16.9425783,5.9425776 16.5773439,7.08984375 16.4656249,7.36914062 C17.1531249,8.12968737 17.5742181,8.72265625 17.5742181,9.89999974 C17.5742181,14.0464841 15.043359,14.3773427 12.6414061,14.6480466 C13.0367191,14.9874995 13.3718749,15.6320307 13.3718749,16.6417964 C13.3718749,18.0898438 13.3589848,19.8816398 13.3589848,20.2339841 C13.3589848,20.513281 13.5566413,20.8527339 14.1023436,20.7539062 C18.3992186,19.3273432 21.3124993,15.2496091 21.3124993,10.484375 C21.3124993,4.52460885 16.478515,0 10.5187495,0 L10.5187508,0 Z M4.17656171,14.8199216 C4.12070221,14.8628904 4.13359296,14.961718 4.20663971,15.0433596 C4.27538997,15.1121099 4.37421823,15.1421872 4.43007773,15.0863284 C4.48593724,15.0433596 4.47304648,14.944532 4.39999974,14.8628904 C4.33124948,14.7941401 4.23242122,14.7640628 4.17656171,14.8199216 Z M3.71249908,14.4718745 C3.68242109,14.5277333 3.72538984,14.5964836 3.81132734,14.6394523 C3.8800776,14.6824211 3.9660151,14.669531 3.99609375,14.6093737 C4.02617174,14.5535148 3.98320299,14.4847646 3.89726549,14.4417958 C3.81132799,14.4160143 3.74257773,14.4289057 3.71249908,14.4718745 Z M5.10468698,16.0015622 C5.03593671,16.0574211 5.06171823,16.1863273 5.16054648,16.267969 C5.25937474,16.3667966 5.38398385,16.379688 5.43984336,16.3109378 C5.49570286,16.2550789 5.46992135,16.1261727 5.38398385,16.044531 C5.28945273,15.9457034 5.16054648,15.932812 5.10468698,16.0015622 Z M4.61484283,15.3699211 C4.54609257,15.4128898 4.54609257,15.5246089 4.61484283,15.6234365 C4.68359309,15.7222641 4.79960924,15.7652328 4.85546875,15.7222641 C4.92421901,15.6664052 4.92421901,15.5546862 4.85546875,15.4558573 C4.79531211,15.3570297 4.68359309,15.3140609 4.61484283,15.3699198 L4.61484283,15.3699211 Z"></path>
            </g>
        </g>
    </g>
</svg>