<?xml version="1.0" encoding="UTF-8"?>
<svg width="34px" height="34px" viewBox="0 0 34 34" version="1.1" xmlns="http://www.w3.org/2000/svg" xmlns:xlink="http://www.w3.org/1999/xlink">
    <title>Icons/34px/GCP/IAM Service Key</title>
    <g id="Icons/34px/GCP/IAM-Service-Key" stroke="none" stroke-width="1" fill="none" fill-rule="evenodd">
        <g id="Group-9" transform="translate(4, 1)">
            <path d="M13.0155805,0 C13.0155805,0 0,5.38712389 0,5.38712389 C0,5.38712389 0,8.9009539 0,15.9286139 C1.10009554,23.7988145 5.43862237,29.1559432 13.0155805,32 C13.0155805,32 24.3018247,29.3650462 26,15.9097215 C26,15.9097215 26,5.38712389 26,5.38712389 C26,5.38712389 13.0155805,0 13.0155805,0 Z" id="Path-4" fill="#4285F4"></path>
            <path d="M13.1892342,0.0720474222 C13.8609411,0.35073285 16.3825179,1.39691336 19.0130484,2.48829783 L20.002532,2.89882606 C23.0756148,4.17382164 26,5.38712389 26,5.38712389 L25.9923974,5.38379944 L25.9933359,15.9620849 C24.3601732,28.6889173 14.1374888,31.7043308 13.1004323,31.9784715 L13.1003974,0.0734946614 Z" id="Rectangle-2" fill="#3D7CE3"></path>
            <ellipse id="Oval" fill="#FFFFFF" cx="13.1003974" cy="10.1744393" rx="4.24084385" ry="4.2800613"></ellipse>
            <path d="M19.5447679,19.5931865 C19.5447679,19.7107048 19.5447679,21.1466082 19.5447679,23.9008969 C17.9876569,25.9604906 15.8112611,27.5216355 13.0155805,28.5843316 C13.0005595,28.5900414 8.4959895,27.0462961 6.51438895,23.9008969 C6.51438895,23.9008969 6.51438895,22.4589026 6.51438895,19.5749141 C7.6497603,17.2977877 9.81163065,16.1592245 13,16.1592245 C17.782554,16.1592245 19.5444484,19.4169091 19.5447679,19.5931865 Z" id="Path-5" fill="#FFFFFF"></path>
            <path d="M13.2700311,17.5361448 C14.581637,17.5361448 15.6449037,18.5830709 15.6449037,19.8745197 C15.6449037,20.9212768 14.9463824,21.8073928 13.9832753,22.1056012 L13.9824929,27.1234821 L12.5575694,27.1234821 L12.5571586,26.1871448 L11.6076203,26.1881321 L11.6076203,25.2527821 L12.5571586,25.2521448 L12.5571586,24.3171448 L10.8951586,24.3174321 L10.8951586,23.3820822 L12.5571586,23.3811448 L12.5573325,22.1057701 C11.6434589,21.823046 10.9676885,21.0110222 10.9006375,20.0346192 L10.8951586,19.8745197 C10.8951586,18.5830709 11.9584252,17.5361448 13.2700311,17.5361448 Z M13.2700311,18.7053322 C12.6142282,18.7053322 12.0825948,19.2287953 12.0825948,19.8745197 C12.0825948,20.5202441 12.6142282,21.0437072 13.2700311,21.0437072 C13.9258341,21.0437072 14.4574674,20.5202441 14.4574674,19.8745197 C14.4574674,19.2287953 13.9258341,18.7053322 13.2700311,18.7053322 Z" id="Oval-3" fill="#3D7CE3"></path>
        </g>
        <g id="google-cloud-platform_2" transform="translate(23, 1)" fill-rule="nonzero">
            <path d="M6.4976974,7.11949958 L5.48118943,8.89888564 L2.82158557,8.89888564 C2.58491768,8.89888564 2.36570891,8.76983127 2.24737496,8.56256212 L0.094085184,4.78283328 C-0.0223088581,4.57751951 -0.0223088581,4.32527687 0.094085184,4.11800772 L0.91272328,2.67885593 L1.92341155,4.4504205 L3.4462336,7.11949958 L6.4976974,7.11949958" id="Path" fill="#FBBC05"></path>
            <path d="M9.85178571,4.78283328 L7.69849593,8.56451749 C7.58016199,8.77178663 7.36095321,8.90084101 7.12428533,8.90084101 L5.48118943,8.90084101 L6.4976974,7.12145495 L8.02051945,4.4504205 L6.4957575,1.78134142 L8.51907393,1.78134142 L9.84984581,4.11800772 C9.96817975,4.3233215 9.96817975,4.57751951 9.85178571,4.78283328" id="Path" fill="#EA4335"></path>
            <path d="M8.52101383,1.78134142 L3.4481735,1.78134142 L1.92341155,4.4504205 L0.91272328,2.67885593 L2.24543506,0.336323518 C2.363769,0.129054373 2.58297778,0 2.81964567,0 L7.12622523,0 C7.36289311,0 7.58210189,0.129054373 7.70043583,0.336323518 L8.52101383,1.78134142" id="Path" fill="#4285F4"></path>
            <polyline id="Path" fill="#E0E0E0" points="6.4976974 1.78134142 8.02051945 4.4504205 6.4957575 7.11949958 3.4481735 7.11949958 1.92341155 4.4504205 3.4481735 1.78134142 6.4976974 1.78134142"></polyline>
            <path d="M4.97293545,3.11490328 C5.70427801,3.11490328 6.29788763,3.71324628 6.29788763,4.4504205 C6.29788763,5.18759473 5.70427801,5.78593773 4.97293545,5.78593773 C4.24159288,5.78593773 3.64798327,5.18759473 3.64798327,4.4504205 C3.64798327,3.71324628 4.24159288,3.11490328 4.97293545,3.11490328 Z" id="Path" fill="#FFFFFF"></path>
            <path d="M7.12622523,0 C7.12622523,0 7.12622523,0 7.12622523,0 L2.82158557,0 L2.82158557,0 L2.82158557,0 L7.12622523,0 C7.36289311,0 7.58210189,0.129054373 7.70043583,0.336323518 L8.48997542,1.72463571 L8.48997542,1.72463571 L8.52101383,1.77938605 L8.52101383,1.77938605 L8.52101383,1.77938605 L8.52101383,1.77938605 L7.69849593,0.334368149 C7.58210189,0.129054373 7.36289311,0 7.12622523,0" id="Path" fill="#FFFFFF"></path>
            <path d="M7.12622523,0 L2.82158557,0 L2.82158557,0 C2.58491768,0 2.36570891,0.129054373 2.24737496,0.336323518 L2.24737496,0.336323518 L0.91272328,2.67885593 L0.928242486,2.7062311 L2.24543506,0.391073858 C2.363769,0.183804713 2.58297778,0.0547503401 2.81964567,0.0547503401 C2.81964567,0.0547503401 2.81964567,0.0547503401 2.81964567,0.0547503401 L7.12622523,0.0547503401 C7.36289311,0.0547503401 7.58210189,0.183804713 7.70043583,0.391073858 L8.45893701,1.72463571 L8.48997542,1.72463571 L7.70043583,0.336323518 C7.58210189,0.129054373 7.36289311,0 7.12622523,0" id="Path" fill="#689DF6"></path>
            <polyline id="Path" fill="#3A71DC" points="8.45893701 1.72463571 3.4481735 1.72463571 1.92341155 4.39371479 1.92341155 4.4504205 3.4481735 1.78134142 6.4976974 1.78134142 6.4976974 1.78134142 6.4976974 1.77938605 8.48997542 1.77938605 8.45893701 1.72463571"></polyline>
            <polyline id="Path" fill="#D1D3E5" points="8.48997542 1.72463571 8.48997542 1.72463571 8.61771779 1.85312525 8.61771779 1.85312525 8.48997542 1.72463571"></polyline>
            <polyline id="Path" fill="#5885DE" points="8.52280819 1.72463571 8.45893701 1.72463571 8.52280819 1.85312525 8.58667938 1.85312525 8.52280819 1.72463571"></polyline>
            <path d="M0.91272328,2.67885593 L0.094085184,4.11800772 C0.0843856805,4.13560605 0.074686177,4.15515974 0.0669265742,4.17275806 C0.074686177,4.15320437 0.0843856805,4.13560605 0.094085184,4.11800772 L0.91272328,2.67885593 L1.92341155,4.4504205 L3.4462336,7.11949958 L6.4957575,7.11949958 L6.4957575,7.11949958 L6.4957575,7.11949958 L6.4957575,7.11949958 L3.4481735,7.11949958 L3.4481735,7.11949958 L3.4481735,7.11949958 L1.92341155,4.4504205 L0.928242486,2.70818647 L0.928242486,2.70818647 L0.91272328,2.67885593" id="Path" fill="#FFFFFF"></path>
            <path d="M0.91272328,2.6808113 L0.094085184,4.11800772 C0.0843856805,4.13560605 0.074686177,4.15515974 0.0669265742,4.17275806 C0.0300684609,4.25292821 0.0106694539,4.33896445 0.00872955316,4.42891144 C0.00872955316,4.42695607 0.00872955316,4.4250007 0.00872955316,4.42304533 C0.00872955316,4.43282218 0.00872955316,4.44259903 0.0106694539,4.4504205 C0.0184290567,4.35265204 0.0475275672,4.25879431 0.0960250847,4.17471343 L0.914663181,2.73556164 L1.92535145,4.50712621 L3.4481735,7.17620529 L6.46471909,7.17620529 L6.4957575,7.12145495 L3.4481735,7.12145495 L1.92341155,4.4504205 L0.91272328,2.6808113" id="Path" fill="#FCC937"></path>
            <polyline id="Path" fill="#E6E6E6" points="6.4976974 7.1739675 3.4481735 7.1739675 3.4481735 7.1739675 6.4957575 7.1739675 6.4976974 7.1739675"></polyline>
            <polyline id="Path" fill="#FFFFFF" points="0.923557616 2.67885593 1.02575151 2.80734546 1.02575151 2.80734546 0.923557616 2.67885593"></polyline>
            <path d="M0.094085184,4.78283328 L2.24543506,8.56451749 C2.363769,8.77178663 2.58297778,8.90084101 2.81964567,8.90084101 C2.81964567,8.90084101 2.81964567,8.90084101 2.81964567,8.90084101 L5.47924953,8.90084101 L5.47924953,8.90084101 L2.82158557,8.90084101 C2.58491768,8.90084101 2.36570891,8.77178663 2.24737496,8.56451749 L0.094085184,4.78283328 M0.0894003146,4.75350274 C0.127723025,4.79633259 0.153271499,4.83916243 0.19159421,4.88199228 C0.153271499,4.83916243 0.127723025,4.79633259 0.0894003146,4.75350274" id="Shape" fill="#F2D7CE"></path>
            <path d="M0.00872955316,4.42891144 C0.00484975175,4.54036749 0.0281285602,4.65182354 0.0785659784,4.75154737 C0.0785659784,4.75154737 0.0785659784,4.75154737 0.0785659784,4.75154737 C0.0785659784,4.75154737 0.0785659784,4.75154737 0.0785659784,4.75154737 C0.0785659784,4.75154737 0.0785659784,4.75154737 0.0785659784,4.75154737 C0.0785659784,4.75154737 0.0785659784,4.75154737 0.0785659784,4.75154737 C0.0843856805,4.76132422 0.0882654819,4.77110107 0.094085184,4.78087791 L0.094085184,4.78087791 L2.24543506,8.56256212 C2.363769,8.76983127 2.58297778,8.89888564 2.81964567,8.89888564 L5.47924953,8.89888564 L5.51028794,8.84217993 L2.82158557,8.84217993 C2.58491768,8.84217993 2.36570891,8.71508093 2.24737496,8.50585641 L0.094085184,4.72612757 C0.0455876665,4.64204669 0.016489156,4.5462336 0.00872955316,4.4504205 C0.00872955316,4.46019735 0.00678965246,4.4699742 0.00678965246,4.47779567 C0.00678965246,4.46215272 0.00678965246,4.4445544 0.00872955316,4.42891144" id="Path" fill="#EFA106"></path>
            <polyline id="Path" fill="#E1402D" points="5.6089318 8.8441353 5.6089318 8.8441353 5.48118943 8.96819416 5.48118943 8.97262483 5.48118943 8.97262483 5.48118943 8.97262483 5.56102841 8.89287271 5.6089318 8.8441353"></polyline>
            <path d="M0.0574840661,4.42304533 C0.0574840661,4.42763425 0.0574840661,4.43222316 0.0574840661,4.43681207 C0.0574840661,4.47352336 0.0574840661,4.51482357 0.0574840661,4.55153487 C0.0574840661,4.52859031 0.0574840661,4.50564575 0.070258303,4.4872901 C0.0574840661,4.46434554 0.0574840661,4.44140098 0.0574840661,4.42304533" id="Path" fill="#F0AC2E"></path>
            <polyline id="Path" fill="#C83D31" points="6.4976974 1.78134142 6.4976974 1.78134142 8.02051945 4.4504205 8.05155786 4.4504205 6.55977422 1.83609176 6.52873581 1.83609176 6.4976974 1.78134142"></polyline>
            <path d="M5.58766566,8.8667611 L5.54934295,8.93100586 L5.52379448,8.96955272 L5.58766566,8.8667611 M9.93520144,4.4504205 C9.92744184,4.54818897 9.89834333,4.64204669 9.84984581,4.72612757 L7.69849593,8.50976715 C7.58016199,8.71703629 7.36095321,8.84609067 7.12428533,8.84609067 C7.12428533,8.84609067 7.12428533,8.84609067 7.12428533,8.84609067 L5.54326625,8.84609067 L5.51222784,8.90084101 L5.48118943,8.90084101 L5.48118943,8.90084101 L7.12428533,8.90084101 C7.36095321,8.90084101 7.58016199,8.77178663 7.69849593,8.56451749 L9.85178571,4.78283328 C9.90804283,4.68506482 9.93714134,4.57360877 9.93908124,4.46019735 C9.93908124,4.46606346 9.93908124,4.47192957 9.93908124,4.47779567 C9.93714134,4.46801883 9.93714134,4.46019735 9.93520144,4.4504205" id="Shape" fill="#C83D31"></path>
            <polyline id="Path" fill="#C03B2B" points="5.6089318 8.86564436 5.48118943 8.99413389 5.48118943 8.99413389 5.48118943 8.98699558 5.48118943 8.98699558 5.58338333 8.88705928 5.6089318 8.86564436"></polyline>
            <path d="M8.52101383,1.78134142 L8.52101383,1.78134142 L6.52873581,1.78134142 L8.52101383,1.78134142 L9.84984581,4.11800772 C9.87700442,4.16493659 9.89640343,4.21382082 9.91192263,4.26270505 C9.89834333,4.21186545 9.87700442,4.16298122 9.84984581,4.11605236 L8.52101383,1.78134142" id="Path" fill="#FFFFFF"></path>
            <path d="M8.05155786,4.4504205 L8.02051945,4.4504205 L6.4957575,7.11949958 L5.50640814,8.85391215 L5.51222784,8.8441353 L5.54326625,8.8441353 L6.4957575,7.17424992 L8.05155786,4.4504205 M8.52101383,1.78134142 L6.52873581,1.78134142 L6.55977422,1.83609176 L8.52101383,1.83609176 L9.85178571,4.17471343 C9.90028323,4.25879431 9.92938174,4.35460741 9.93714134,4.4504205 C9.93714134,4.44064366 9.93908124,4.43086681 9.93908124,4.42304533 C9.93908124,4.43477755 9.93908124,4.44846513 9.93908124,4.46019735 C9.94102114,4.39371479 9.93132164,4.32723224 9.91386253,4.26466042 C9.89834333,4.21382082 9.87894432,4.16493659 9.85178571,4.11996309 L8.52101383,1.78134142" id="Shape" fill="#EE695D"></path>
            <polyline id="Path" fill="#FFFFFF" points="8.57518551 1.82840718 8.57518551 1.82840718 8.57518551 1.84125613 8.57518551 1.84125613 8.57518551 1.82840718"></polyline>
            <polyline id="Path" fill="#618DE3" points="8.48997542 1.82840718 6.4976974 1.82840718 6.4976974 1.84125613 6.52873581 1.84125613 8.48997542 1.84125613 8.48997542 1.82840718"></polyline>
            <polyline id="Path" fill="#DADCEA" points="8.57518551 1.82840718 8.57518551 1.82840718 8.57518551 1.84125613 8.57518551 1.82840718"></polyline>
            <polyline id="Path" fill="#799DE5" points="8.61771779 1.82840718 8.48997542 1.82840718 8.48997542 1.84125613 8.61771779 1.84125613 8.61771779 1.82840718"></polyline>
            <path d="M8.14826182,4.50488842 L8.02051945,4.50488842 L8.14826182,4.50488842 M6.56156858,1.78134142 L6.4976974,1.78134142 L6.56156858,1.90983095 L6.62543977,1.90983095 L6.56156858,1.78134142" id="Shape" fill="#D3645A"></path>
            <path d="M5.6108717,8.8441353 L5.54700052,8.8441353 L5.53502467,8.86707986 L5.51506492,8.90838006 L5.48312933,8.97262483 L5.54700052,8.97262483 L5.6108717,8.8441353 M9.99432256,4.42304533 C9.99432256,4.44598989 9.99432256,4.46893445 9.98154832,4.4872901 C9.98154832,4.51023466 9.99432256,4.53317922 9.99432256,4.55153487 C9.99432256,4.53776813 9.99432256,4.52400139 9.99432256,4.51023466 C10.0070968,4.47811228 9.99432256,4.4505788 9.99432256,4.42304533" id="Shape" fill="#D3645A"></path>
            <polyline id="Path" fill="#CD6255" points="5.59421766 8.87151047 5.49202377 9 5.49202377 9 5.59421766 8.87151047"></polyline>
        </g>
    </g>
</svg>