<?xml version="1.0" encoding="UTF-8"?>
<svg width="34px" height="34px" viewBox="0 0 34 34" version="1.1" xmlns="http://www.w3.org/2000/svg" xmlns:xlink="http://www.w3.org/1999/xlink">
    <title>Icons/34px/Graph/Policy</title>
    <g id="Symbols" stroke="none" stroke-width="1" fill="none" fill-rule="evenodd">
        <g id="Icons/34px/Graph/Policy">
            <rect id="Rectangle" fill="#545B71" x="0" y="0" width="34" height="34" rx="4"></rect>
            <g id="file-certificate" transform="translate(8.000539, 7.749997)" fill="#FFFFFF" fill-rule="nonzero">
                <path d="M8.69711697,11.8933622 C8.96078885,11.6296903 9.06168711,11.2429715 8.96518338,10.88262 C8.77621854,10.1576983 8.771824,10.2585965 8.96518338,9.53332293 C9.06179226,9.16840088 8.96078885,8.78168213 8.69711697,8.51801026 C8.17328906,7.98398781 8.19438303,8.07187843 8.03266406,7.34765947 C7.9412576,6.98906583 7.63188303,6.70781529 7.3084451,6.60937822 C6.59125781,6.412503 6.67914844,6.46523738 6.15532053,5.93437779 C5.89867979,5.67070591 5.48735178,5.56523716 5.16391385,5.66015947 C4.44778067,5.85351884 4.54903084,5.85351884 3.83711678,5.66015947 C3.48028106,5.56523716 3.10235137,5.67070591 2.84324944,5.93437779 C2.31590569,6.46523738 2.40379632,6.412503 1.69188225,6.60937822 C1.33610118,6.70781529 1.06223369,6.98906583 0.965554001,7.34765947 C0.776589157,8.07715166 0.824929001,7.98469055 0.302155735,8.51660478 C0.0428783911,8.78027666 -0.0610083921,9.16699541 0.0356010216,9.53191745 C0.224565865,10.2568392 0.224565865,10.1559409 0.0356010216,10.8812145 C-0.0610786659,11.2415661 0.0428783911,11.6282848 0.302155735,11.8919567 C0.824929001,12.423519 0.77676511,12.3356284 0.965554001,13.060902 C1.06223369,13.425824 1.33610118,13.707074 1.69223416,13.8034018 C2.1974293,13.9396323 2.09653104,13.9088706 2.25016421,13.9791831 L2.25016421,18.0000032 L4.49981284,16.8750032 L6.74946147,18.0000032 L6.74946147,13.9781284 C6.89887554,13.9078159 6.80216044,13.9385777 7.30739099,13.8023472 C7.65888322,13.7056675 7.90856308,13.4244175 8.03231269,13.0598474 C8.19438303,12.3328153 8.17328906,12.4242218 8.69711697,11.8933622 Z M4.49946094,12.3750032 C3.25598455,12.3750032 2.24981231,11.3688315 2.24981231,10.1250032 C2.24981231,8.88117492 3.25633592,7.87500322 4.49946094,7.87500322 C5.74258596,7.87500322 6.74910957,8.88117492 6.74910957,10.1250032 C6.74910957,11.3688315 5.74399197,12.3750032 4.49946094,12.3750032 Z M17.3420386,3.28289402 L14.7183275,0.658831 C14.2939924,0.237026811 13.7209449,0 13.1268045,0 L6.71782053,0 C5.47504687,0 4.46782053,1.00722635 4.46782053,2.25 L4.4681896,4.67367196 C4.4681896,4.67367196 5.24233037,4.29750073 6.1556896,4.64716744 L6.18696094,2.2545737 C6.18696094,1.94393313 6.43882036,1.6920737 6.74946094,1.6920737 L12.3744609,1.6920737 L12.3744609,4.5 C12.3744609,5.12121356 12.8782495,5.62500322 13.4994609,5.62500322 L16.2803205,5.62500322 L16.2803205,15.7500032 C16.2803205,16.0606438 16.0284611,16.3125032 15.7178205,16.3125032 L7.87446094,16.3125032 L7.84282053,18 L15.7178205,18 C16.955321,18 17.9678205,16.9875004 17.9678205,15.75 L17.9678205,4.87265968 C17.9994609,4.27851927 17.7639136,3.70547175 17.3420386,3.28289402 Z" id="Shape"></path>
            </g>
        </g>
    </g>
</svg>