<?xml version="1.0" encoding="UTF-8"?>
<svg width="34px" height="34px" viewBox="0 0 34 34" version="1.1" xmlns="http://www.w3.org/2000/svg" xmlns:xlink="http://www.w3.org/1999/xlink">
    <title>Icons/34px/Custom/Remote-control@2x</title>
    <defs>
        <rect id="path-1" x="0" y="0" width="34" height="34" rx="4"></rect>
    </defs>
    <g id="Icons/34px/Custom/Remote-control" stroke="none" stroke-width="1" fill="none" fill-rule="evenodd">
        <g id="Arch-Category_Customer-Enablement_64">
            <mask id="mask-2" fill="white">
                <use xlink:href="#path-1"></use>
            </mask>
            <use id="Mask" fill="#D24726" xlink:href="#path-1"></use>
        </g>
        <path d="M6.39930556,6.58192274 C6.39930556,6.58192274 5.06174045,6.51866319 5.06174045,7.75455729 C5.06174045,8.99045139 5.06174045,20.6663411 5.06174045,20.6663411 C5.06174045,20.6663411 4.86197917,22.031033 6.39930556,22.031033 C7.93663194,22.031033 14.9940321,22.031033 14.9940321,22.031033 C14.9940321,22.031033 14.9940321,22.64511 14.9940321,23.8732639 C15.0471282,25.0931713 14.4821325,25.703125 13.2990451,25.703125 C11.5244141,25.703125 10.0253469,25.9785156 10.0253469,26.8233507 C10.0253469,27.6681858 10.5957031,27.4700521 10.5957031,27.4700521 C10.5957031,27.4700521 18.4671224,27.4700521 18.4671224,27.4700521 C18.4671224,27.4700521 17.0351563,25.7154948 16.7675781,23.8732639 C16.5,22.031033 17.1509332,20.0846897 17.1509332,20.0846897 C17.1509332,20.0846897 6.96565755,20.0846897 6.96565755,20.0846897 C6.96565755,20.0846897 6.96565755,8.53645833 6.96565755,8.53645833 C6.96565755,8.53645833 25.8796658,8.53645833 25.8796658,8.53645833 C25.8796658,8.53645833 25.8796658,15.3402235 25.8796658,15.3402235 C25.8796658,15.3402235 27.8408746,16.1071506 27.8408746,16.1071506 C27.8408746,16.1071506 27.8408746,7.62179905 27.8408746,7.62179905 C27.8408746,7.62179905 27.9170464,6.58192274 26.5882161,6.58192274 C25.2593859,6.58192274 6.39930556,6.58192274 6.39930556,6.58192274 Z" id="Path-6" fill="#FFFFFF"></path>
        <path d="M24.0551515,16.0687062 C27.6450024,16.0687062 30.5551515,18.9788554 30.5551515,22.5687062 C30.5551515,26.1585571 27.6450024,29.0687062 24.0551515,29.0687062 C20.4653007,29.0687062 17.5551515,26.1585571 17.5551515,22.5687062 C17.5551515,18.9788554 20.4653007,16.0687062 24.0551515,16.0687062 Z M22.2594363,21.4129116 C21.9934625,21.1745605 21.7257798,21.3438546 21.7257798,21.3438546 L21.6856068,21.3879902 C21.5968374,21.4851789 21.3788017,21.7220285 21.214061,21.8856027 C21.0022516,22.0959124 21.2869893,22.377267 21.2869893,22.377267 C21.2869893,22.377267 21.5919078,22.6725626 21.9191776,22.990171 L22.137568,23.2022199 C22.3171513,23.3766891 22.4842528,23.5393219 22.5904212,23.6433105 C22.8778928,23.9248798 22.678874,24.1401753 22.6108334,24.1997557 L22.5904212,24.2162737 C22.5904212,24.2162737 21.8197042,25.0303432 21.4236034,25.3882533 C21.0275027,25.7461635 21.2869893,25.9921875 21.2869893,25.9921875 C21.2869893,25.9921875 21.5733314,26.3063965 21.7713992,26.5081264 C21.969467,26.7098563 22.3209946,26.4375 22.3209946,26.4375 L22.3594273,26.3982178 C22.483966,26.2709202 22.8930737,25.8527029 23.318972,25.4168076 L23.5743837,25.155335 C23.954097,24.7665019 24.3040306,24.4076148 24.4289745,24.2778669 C24.7482756,23.9462891 24.4289745,23.5563616 24.4289745,23.5563616 L23.9998355,23.1276613 C23.9637188,23.0916277 23.9260411,23.0540477 23.8870933,23.0152149 L23.6404943,22.7695336 C23.0832646,22.214829 22.4097693,21.5476317 22.2594363,21.4129116 Z M25.9852818,18.6996373 C25.869641,18.8032681 25.4444368,19.2219743 25.000715,19.6621872 L24.7345882,19.9265472 C24.5587934,20.1013764 24.3893492,20.2702525 24.2448827,20.4143871 L23.8157436,20.8430873 C23.8157436,20.8430873 23.4964425,21.2330148 23.8157436,21.5645926 C24.1350446,21.8961705 25.9237235,23.7242257 25.9237235,23.7242257 C25.9237235,23.7242257 26.2752511,23.996582 26.4733189,23.7948521 C26.6713867,23.5931222 26.9577288,23.2789132 26.9577288,23.2789132 C26.9577288,23.2789132 27.2172154,23.0328892 26.8211147,22.6749791 C26.425014,22.3170689 25.6542969,21.5029994 25.6542969,21.5029994 C25.6542969,21.5029994 25.3145578,21.2627999 25.6542969,20.9300363 C25.994036,20.5972726 26.9577288,19.6639927 26.9577288,19.6639927 C26.9577288,19.6639927 27.2424665,19.3826381 27.0306571,19.1723284 C26.8188477,18.9620187 26.5189383,18.6305804 26.5189383,18.6305804 C26.5189383,18.6305804 26.2512556,18.4612863 25.9852818,18.6996373 Z" id="Oval-2" fill="#FFFFFF"></path>
    </g>
</svg>