<svg height="100" viewBox="0 0 100 100" width="100" xmlns="http://www.w3.org/2000/svg"><rect fill="#7d7c7c" height="39.92" rx="6.21" width="53" x="23.5" y="31.28"/><rect fill="#fff" height="39.92" rx="6.21" width="53" x="23.5" y="28.8"/><circle cx="63.25" cy="41.52" fill="#759c3e" r="9.53"/><circle cx="67.42" cy="41.52" fill="#fff" r="2.49"/><path d="m60.02 45.57h-11.02l-1-1.73-3.73.35-1.43-1.47-1.31-.29-3.4 2.04-4.22-3.25 2.32-3.74h23.79z" fill="#759c3e"/><circle cx="36.75" cy="56.19" fill="#7d7c7c" r="9.53"/><circle cx="32.58" cy="56.19" fill="#fff" r="2.49"/><path d="m39.98 52.14h11.02l1 1.74 3.73-.35 1.43 1.46 1.31.29 3.4-2.04 4.22 3.25-2.32 3.75h-23.79z" fill="#7d7c7c"/></svg>