<?xml version="1.0" encoding="UTF-8"?>
<svg width="34px" height="34px" viewBox="0 0 34 34" version="1.1" xmlns="http://www.w3.org/2000/svg" xmlns:xlink="http://www.w3.org/1999/xlink">
    <title>Icons/34px/Apps/API</title>
    <g id="Symbols" stroke="none" stroke-width="1" fill="none" fill-rule="evenodd">
        <g id="Icons/34px/Apps/API">
            <rect id="Rectangle" fill="#F1F4FB" x="0" y="0" width="34" height="34" rx="4"></rect>
            <g id="gear" transform="translate(5.000000, 7.000000)" fill-rule="nonzero">
                <g id="cloud" fill="#222945">
                    <path d="M3.60123735,6.37582477 C3.59637063,6.27341666 3.59374992,6.17100912 3.59374992,6.06860158 C3.59374992,2.71569944 6.27408863,0 9.58333311,0 C11.8032219,0 13.7386065,1.22320251 14.7755535,3.04188701 C15.3445632,2.62087754 16.0333651,2.42744063 16.770833,2.42744063 C18.7548824,2.42744063 20.3645829,4.02424166 20.3645829,6.06860158 C20.3645829,6.53133234 20.2784831,6.97130618 20.1249986,7.38093691 C22.3111974,7.82849581 23.9583328,9.78941316 23.9583328,12.1372032 C23.9583328,14.818767 21.8133138,16.9920844 19.1666662,16.9920844 L5.39062488,16.9920844 C2.41342772,16.9920844 0,14.5456794 0,11.530343 C0,9.14841735 1.50375966,7.12302122 3.60123678,6.37582477 L3.60123735,6.37582477 Z" id="Path"></path>
                </g>
                <g id="API" transform="translate(4.000000, 7.000000)" fill="#FFFFFF">
                    <path d="M4.00352319,6 L3.59248385,4.5730659 L1.67704052,4.5730659 L1.26600117,6 L0,6 L1.89078097,0 L3.4362889,0 L5.30240752,6 L4.00352319,6 Z M2.64709336,1.18624642 L2.60598943,1.18624642 L1.97298884,3.46418338 L3.28831474,3.46418338 L2.64709336,1.18624642 Z" id="Shape"></path>
                    <path d="M6.09982384,6 L6.09982384,0 L8.8126835,0 C9.0812292,0 9.32237228,0.047277937 9.53611274,0.141833811 C9.7498532,0.236389685 9.93208064,0.366762178 10.0827951,0.532951289 C10.2335095,0.699140401 10.3499706,0.901146132 10.4321785,1.13896848 C10.5143864,1.37679083 10.5554903,1.63610315 10.5554903,1.91690544 C10.5554903,2.2034384 10.5143864,2.46418338 10.4321785,2.6991404 C10.3499706,2.93409742 10.2335095,3.13467049 10.0827951,3.3008596 C9.93208064,3.46704871 9.7498532,3.5974212 9.53611274,3.69197708 C9.32237228,3.78653295 9.0812292,3.83381089 8.8126835,3.83381089 L7.34938344,3.83381089 L7.34938344,6 L6.09982384,6 Z M7.34938344,2.6991404 L8.66470934,2.6991404 C8.85104717,2.6991404 8.9976512,2.64899713 9.10452143,2.5487106 C9.21139166,2.44842407 9.26482678,2.3008596 9.26482678,2.10601719 L9.26482678,1.7277937 C9.26482678,1.53295129 9.21139166,1.38538682 9.10452143,1.28510029 C8.9976512,1.18481375 8.85104717,1.13467049 8.66470934,1.13467049 L7.34938344,1.13467049 L7.34938344,2.6991404 Z" id="Shape"></path>
                    <polygon id="Path" points="11.2706988 6 11.2706988 4.95988539 12.0105696 4.95988539 12.0105696 1.04011461 11.2706988 1.04011461 11.2706988 0 14 0 14 1.04011461 13.2601292 1.04011461 13.2601292 4.95988539 14 4.95988539 14 6"></polygon>
                </g>
                <path d="M24.9737164,13.1649078 C25.0364004,13.3350926 24.9832139,13.5270447 24.8540478,13.6517153 L24.0315617,14.4313985 C24.0524564,14.5956463 24.0638535,14.7638521 24.0638535,14.9340369 C24.0638535,15.1042218 24.0524564,15.2724276 24.0315617,15.4366753 L24.8540478,16.2163586 C24.9832139,16.3410291 25.0364004,16.5329813 24.9737164,16.7031661 C24.8901383,16.9386541 24.7894647,17.1662267 24.6754944,17.3819264 L24.5862174,17.5422161 C24.46085,17.7598942 24.3202867,17.9656995 24.1664267,18.1616096 C24.0524564,18.3021111 23.8682047,18.3515834 23.7010479,18.296174 L22.6430239,17.9439315 C22.3884898,18.1477571 22.0902678,18.317942 21.8072417,18.4485489 L21.5698035,19.5784963 C21.5318134,19.7565965 21.398848,19.8832455 21.2240933,19.9307388 C20.9619619,19.9762531 20.6922319,20 20.3997082,20 C20.1413754,20 19.8716457,19.9762531 19.609514,19.9307388 C19.4347596,19.8832455 19.3017942,19.7565965 19.2638041,19.5784963 L19.026366,18.4485489 C18.7262441,18.317942 18.4451173,18.1477571 18.1905837,17.9439315 L17.1333191,18.296174 C16.9654029,18.3515834 16.7802011,18.3021111 16.6677505,18.1616096 C16.5137006,17.9656995 16.373137,17.7598942 16.2477696,17.5422161 L16.1588726,17.3819264 C16.0435725,17.1662267 15.9432786,16.9386541 15.8591304,16.7031661 C15.7975863,16.5329813 15.8494428,16.3410291 15.9797488,16.2163586 L16.8014746,15.4366753 C16.78058,15.2724276 16.7697526,15.1042218 16.7697526,14.9340369 C16.7697526,14.7638521 16.78058,14.5956463 16.8014746,14.4313985 L15.9797488,13.6517153 C15.8494428,13.5270447 15.7975863,13.337071 15.8591304,13.1649078 C15.9432786,12.9294198 16.0437626,12.7018472 16.1588726,12.4861475 L16.2475794,12.3258578 C16.3731367,12.1081797 16.5137003,11.9023744 16.6677502,11.7074541 C16.7802008,11.5659628 16.9654026,11.5168867 17.1333188,11.5726916 L18.1905834,11.9241424 C18.445117,11.719525 18.7262438,11.5493402 19.0263657,11.4201186 L19.2638038,10.2901712 C19.3017939,10.1104881 19.4347593,9.9678102 19.6095137,9.93753317 C19.8716455,9.89184015 20.1413751,9.86807388 20.4168034,9.86807388 C20.6922316,9.86807388 20.9619616,9.89184015 21.2240931,9.93753317 C21.3988478,9.9678102 21.5318131,10.1104881 21.5698032,10.2901712 L21.8072414,11.4201186 C22.0902675,11.5493402 22.3884895,11.719525 22.6430236,11.9241424 L23.7010476,11.5726916 C23.8682044,11.5168867 24.0524561,11.5659628 24.1664264,11.7074541 C24.3202864,11.9023744 24.4608497,12.1081797 24.5862171,12.3258578 L24.6754941,12.4861475 C24.7894644,12.7018472 24.890138,12.9294198 24.9737161,13.1649078 L24.9737164,13.1649078 Z M20.4918853,16.6232802 C21.4123599,16.6232802 22.158552,15.8672439 22.158552,14.9346259 C22.158552,14.0020078 21.4123599,13.2459715 20.4918853,13.2459715 C19.5714108,13.2459715 18.8252187,14.0020078 18.8252187,14.9346259 C18.8252187,15.8672439 19.5714108,16.6232802 20.4918853,16.6232802 Z" id="Shape" fill="#658BD3"></path>
            </g>
        </g>
    </g>
</svg>