<?xml version="1.0" encoding="UTF-8"?>
<svg width="34px" height="34px" viewBox="0 0 34 34" version="1.1" xmlns="http://www.w3.org/2000/svg" xmlns:xlink="http://www.w3.org/1999/xlink">
    <title>Icons/34px/Apps/Google@2x</title>
    <defs>
        <rect id="path-1" x="0" y="0" width="34" height="34" rx="4"></rect>
        <path d="M15.8139535,6.54545455 L8.18604651,6.54545455 L8.18604651,9.63636364 L12.5767442,9.63636364 C12.1674419,11.6 10.455814,12.7272727 8.18604651,12.7272727 C5.50697674,12.7272727 3.34883721,10.6181818 3.34883721,8 C3.34883721,5.38181818 5.50697674,3.27272727 8.18604651,3.27272727 C9.33953488,3.27272727 10.3813953,3.67272727 11.2,4.32727273 L13.5813953,2 C12.1302326,0.763636364 10.2697674,0 8.18604651,0 C3.64651163,0 0,3.56363636 0,8 C0,12.4363636 3.64651163,16 8.18604651,16 C12.2790698,16 16,13.0909091 16,8 C16,7.52727273 15.9255814,7.01818182 15.8139535,6.54545455 Z" id="path-3"></path>
        <path d="M15.8139535,6.54545455 L8.18604651,6.54545455 L8.18604651,9.63636364 L12.5767442,9.63636364 C12.1674419,11.6 10.455814,12.7272727 8.18604651,12.7272727 C5.50697674,12.7272727 3.34883721,10.6181818 3.34883721,8 C3.34883721,5.38181818 5.50697674,3.27272727 8.18604651,3.27272727 C9.33953488,3.27272727 10.3813953,3.67272727 11.2,4.32727273 L13.5813953,2 C12.1302326,0.763636364 10.2697674,0 8.18604651,0 C3.64651163,0 0,3.56363636 0,8 C0,12.4363636 3.64651163,16 8.18604651,16 C12.2790698,16 16,13.0909091 16,8 C16,7.52727273 15.9255814,7.01818182 15.8139535,6.54545455 Z" id="path-5"></path>
        <path d="M15.8139535,6.54545455 L8.18604651,6.54545455 L8.18604651,9.63636364 L12.5767442,9.63636364 C12.1674419,11.6 10.455814,12.7272727 8.18604651,12.7272727 C5.50697674,12.7272727 3.34883721,10.6181818 3.34883721,8 C3.34883721,5.38181818 5.50697674,3.27272727 8.18604651,3.27272727 C9.33953488,3.27272727 10.3813953,3.67272727 11.2,4.32727273 L13.5813953,2 C12.1302326,0.763636364 10.2697674,0 8.18604651,0 C3.64651163,0 0,3.56363636 0,8 C0,12.4363636 3.64651163,16 8.18604651,16 C12.2790698,16 16,13.0909091 16,8 C16,7.52727273 15.9255814,7.01818182 15.8139535,6.54545455 Z" id="path-7"></path>
        <path d="M15.8139535,6.54545455 L8.18604651,6.54545455 L8.18604651,9.63636364 L12.5767442,9.63636364 C12.1674419,11.6 10.455814,12.7272727 8.18604651,12.7272727 C5.50697674,12.7272727 3.34883721,10.6181818 3.34883721,8 C3.34883721,5.38181818 5.50697674,3.27272727 8.18604651,3.27272727 C9.33953488,3.27272727 10.3813953,3.67272727 11.2,4.32727273 L13.5813953,2 C12.1302326,0.763636364 10.2697674,0 8.18604651,0 C3.64651163,0 0,3.56363636 0,8 C0,12.4363636 3.64651163,16 8.18604651,16 C12.2790698,16 16,13.0909091 16,8 C16,7.52727273 15.9255814,7.01818182 15.8139535,6.54545455 Z" id="path-9"></path>
    </defs>
    <g id="Symbols" stroke="none" stroke-width="1" fill="none" fill-rule="evenodd">
        <g id="Icons/34px/Apps/Google">
            <mask id="mask-2" fill="white">
                <use xlink:href="#path-1"></use>
            </mask>
            <use id="Mask" fill="#F1F4FB" xlink:href="#path-1"></use>
            <g id="Icons/18px/Amazon/Color" mask="url(#mask-2)">
                <g transform="translate(9.488037, 8.999512)" id="1534129544">
                    <g id="Clipped">
                        <mask id="mask-4" fill="white">
                            <use xlink:href="#path-3"></use>
                        </mask>
                        <g id="a"></g>
                        <polygon id="Path" fill="#FBBC05" fill-rule="nonzero" mask="url(#mask-4)" points="-0.744186047 12.7272727 -0.744186047 3.27272727 5.58139535 8"></polygon>
                    </g>
                    <g id="Clipped">
                        <mask id="mask-6" fill="white">
                            <use xlink:href="#path-5"></use>
                        </mask>
                        <g id="a"></g>
                        <polygon id="Path" fill="#EA4335" fill-rule="nonzero" mask="url(#mask-6)" points="-0.744186047 3.27272727 5.58139535 8 8.18604651 5.78181818 17.1162791 4.36363636 17.1162791 -0.727272727 -0.744186047 -0.727272727"></polygon>
                    </g>
                    <g id="Clipped">
                        <mask id="mask-8" fill="white">
                            <use xlink:href="#path-7"></use>
                        </mask>
                        <g id="a"></g>
                        <polygon id="Path" fill="#34A853" fill-rule="nonzero" mask="url(#mask-8)" points="-0.744186047 12.7272727 10.4186047 4.36363636 13.3581395 4.72727273 17.1162791 -0.727272727 17.1162791 16.7272727 -0.744186047 16.7272727"></polygon>
                    </g>
                    <g id="Clipped">
                        <mask id="mask-10" fill="white">
                            <use xlink:href="#path-9"></use>
                        </mask>
                        <g id="a"></g>
                        <polygon id="Path" fill="#4285F4" fill-rule="nonzero" mask="url(#mask-10)" points="17.1162791 16.7272727 5.58139535 8 4.09302326 6.90909091 17.1162791 3.27272727"></polygon>
                    </g>
                </g>
            </g>
        </g>
    </g>
</svg>