<?xml version="1.0" encoding="UTF-8"?>
<svg width="34px" height="34px" viewBox="0 0 34 34" version="1.1" xmlns="http://www.w3.org/2000/svg" xmlns:xlink="http://www.w3.org/1999/xlink">
    <title>Icons/34px/Graph/Workflow</title>
    <g id="Icons/34px/Graph/Workflow" stroke="none" stroke-width="1" fill="none" fill-rule="evenodd">
        <rect id="Rectangle" fill="#658BD3" x="0" y="0" width="34" height="34" rx="4"></rect>
        <g id="gear-complex-code-solid" transform="translate(8, 8)" fill="#FFFFFF" fill-rule="nonzero">
            <path d="M10.7661575,0.76640625 C10.720329,0.40078125 10.4453584,0.10546875 10.0787309,0.06328125 C9.73325499,0.02109375 9.38072855,0 9.02467685,0 C8.6333725,0 8.24559342,0.024609375 7.86839013,0.073828125 C7.5052879,0.11953125 7.23384254,0.41484375 7.1880141,0.776953125 L7.08578143,1.5890625 C7.05757932,1.8140625 6.89541716,1.996875 6.68037603,2.07070313 C6.34195065,2.18320313 6.01057579,2.32382813 5.69682726,2.48203125 C5.49236193,2.5875 5.24559342,2.56992188 5.06227967,2.42929688 L4.42773208,1.93710938 C4.1386604,1.71210938 3.73325499,1.69804688 3.44418331,1.92304688 C2.85898942,2.38007813 2.33372503,2.90742188 1.87896592,3.49453125 C1.65687427,3.7828125 1.67097532,4.18359375 1.89659224,4.471875 L2.39717979,5.11523438 C2.53819036,5.29453125 2.55229142,5.53710938 2.45005875,5.74101563 C2.29494712,6.05039063 2.16098707,6.3703125 2.05170388,6.70429688 C1.98119859,6.92226563 1.79435958,7.08398438 1.56874266,7.11210938 L0.764982374,7.2140625 C0.401880141,7.25976563 0.105757932,7.53398438 0.0599294947,7.89609375 C0.0246768508,8.2546875 0,8.62382813 0,9 C0,9.37265625 0.0211515864,9.74179688 0.0669800235,10.1039062 C0.112808461,10.4660156 0.40893067,10.7402344 0.772032902,10.7859375 L1.57579318,10.8878906 C1.80141011,10.9160156 1.98824912,11.0777344 2.05875441,11.2957031 C2.1680376,11.6296875 2.30199765,11.953125 2.45710928,12.2625 C2.55934195,12.4664062 2.54171563,12.7089844 2.40423032,12.8882812 L1.90364277,13.528125 C1.67802585,13.8164062 1.66392479,14.2171875 1.88601645,14.5054688 C2.34077556,15.0925781 2.86603995,15.6199219 3.45123384,16.0769531 C3.74030552,16.3019531 4.14571093,16.2878906 4.43478261,16.0628906 L5.0693302,15.5707031 C5.24911868,15.4300781 5.49941246,15.4160156 5.70387779,15.5179688 C6.02115159,15.6796875 6.34900118,15.8167969 6.68742656,15.9292969 C6.90246769,16.003125 7.06462985,16.1859375 7.09283196,16.4109375 L7.19506463,17.2230469 C7.24089307,17.5851563 7.51233843,17.8804688 7.87544066,17.9261719 C8.25264395,17.9753906 8.64042303,18 9.03172738,18 C9.38777908,18 9.74030552,17.9789062 10.0857814,17.9402344 C10.4524089,17.8980469 10.7273796,17.5992188 10.773208,17.2371094 L10.8719154,16.4460937 C10.9001175,16.2175781 11.0658049,16.03125 11.2843713,15.9609375 C11.6368978,15.8484375 11.9788484,15.7078125 12.306698,15.5460937 C12.5111633,15.4441406 12.7544066,15.4617188 12.9341951,15.5988281 L13.5722679,16.0980469 C13.8613396,16.3230469 14.2632197,16.3371094 14.5522914,16.115625 C14.6509988,16.0382813 14.746181,15.9609375 14.8413631,15.8800781 L15.9236193,14.8007812 C15.987074,14.7234375 16.0505288,14.6460938 16.1139835,14.56875 C16.3431257,14.2804687 16.3254994,13.8761719 16.0998825,13.5878906 L15.6063455,12.9585938 C15.4653349,12.7792969 15.4512338,12.5296875 15.5534665,12.3257813 C15.7226792,11.9953125 15.8707403,11.6472656 15.987074,11.2886719 C16.0575793,11.0707031 16.2444183,10.9089844 16.4700353,10.8808594 L17.2737955,10.7824219 C17.6368978,10.7367187 17.9365452,10.4625 17.9788484,10.1003906 C17.9858989,10.040625 17.9929495,9.97734375 18,9.91757813 L18,8.08945313 C17.9929495,8.0296875 17.9858989,7.96640625 17.9788484,7.90664063 C17.93302,7.54453125 17.6368978,7.2703125 17.2737955,7.22460938 L16.4700353,7.12617187 C16.2444183,7.09804687 16.0575793,6.93632812 15.987074,6.71835937 C15.867215,6.35976563 15.7226792,6.01171875 15.5534665,5.68125 C15.4477086,5.47734375 15.4653349,5.23125 15.6063455,5.0484375 L16.0998825,4.41914062 C16.3254994,4.13085937 16.3396005,3.7265625 16.1139835,3.43828125 C16.0505288,3.3609375 15.987074,3.28359375 15.9236193,3.20625 L14.8413631,2.11992187 C14.746181,2.0390625 14.6509988,1.96171875 14.5522914,1.884375 C14.2632197,1.659375 13.8613396,1.67695312 13.5722679,1.90195312 L12.9271445,2.40117187 C12.7473561,2.54179687 12.5005875,2.55585938 12.2996475,2.45390625 C11.9717979,2.2921875 11.6298472,2.1515625 11.2773208,2.0390625 C11.0587544,1.96875 10.893067,1.78242188 10.8648649,1.55742187 L10.7661575,0.76640625 Z M10.1457109,5.71640625 L9.01762632,12.4664063 C8.96474736,12.7722656 8.67567568,12.9796875 8.36897767,12.9304688 C8.06227967,12.88125 7.85428907,12.5894531 7.90364277,12.2835938 L9.03172738,5.53359375 C9.08460635,5.22773438 9.37367803,5.0203125 9.68037603,5.06953125 C9.98707403,5.11875 10.1950646,5.41054688 10.1457109,5.71640625 L10.1457109,5.71640625 Z M6.60282021,7.99101562 L5.59106933,9 L6.60282021,10.0089844 C6.8213866,10.2269531 6.8213866,10.5855469 6.60282021,10.8035156 C6.38425382,11.0214844 6.02467685,11.0214844 5.80611046,10.8035156 L4.3960047,9.39726562 C4.17743831,9.17929687 4.17743831,8.82070312 4.3960047,8.60273437 L5.80611046,7.19648438 C6.02467685,6.97851563 6.38425382,6.97851563 6.60282021,7.19648438 C6.8213866,7.41445312 6.8213866,7.77304688 6.60282021,7.99101562 L6.60282021,7.99101562 Z M12.2432432,7.19648438 L13.653349,8.60273438 C13.8719154,8.82070312 13.8719154,9.17929688 13.653349,9.39726562 L12.2432432,10.8035156 C12.0246769,11.0214844 11.6650999,11.0214844 11.4465335,10.8035156 C11.2279671,10.5855469 11.2279671,10.2269531 11.4465335,10.0089844 L12.4582844,9 L11.4465335,7.99101563 C11.2279671,7.77304688 11.2279671,7.41445312 11.4465335,7.19648438 C11.6650999,6.97851563 12.0246769,6.97851563 12.2432432,7.19648438 Z" id="Shape"></path>
        </g>
    </g>
</svg>