<?xml version="1.0" encoding="UTF-8"?>
<svg width="24px" height="24px" viewBox="0 0 24 24" version="1.1" xmlns="http://www.w3.org/2000/svg" xmlns:xlink="http://www.w3.org/1999/xlink">
    <title>Icons/24px/Azure resource group@2x</title>
    <g id="Icons/24px/Azure-resource-group" stroke="none" stroke-width="1" fill="none" fill-rule="evenodd" stroke-linecap="round" stroke-linejoin="round">
        <g id="Group" transform="translate(3, 5)" fill="#545B71">
            <path d="M8.95513477,6.14385495 C8.91913513,6.14385495 8.91913513,6.14385495 8.88313549,6.10941958 L3.59656123,3.18797832 C3.56056159,3.15354295 3.52456194,3.11928149 3.52456194,3.05041075 C3.52456194,2.98154001 3.56056159,2.94727855 3.59656123,2.9130171 L8.84731495,0.0256633795 C8.88877927,-0.00855445982 8.9496701,-0.00855445982 8.99113442,0.0256633795 L14.2778878,2.94727855 C14.3138874,2.98171392 14.3498871,3.01597538 14.3498871,3.08484612 C14.3498871,3.15371686 14.3138874,3.18797832 14.2778878,3.22223977 L9.02713406,6.10941958 C9.02713406,6.14385495 8.99113442,6.14385495 8.95513477,6.14385495 M14.4935274,0.0256633795 C14.5657058,0.0256633795 14.6735256,0.0600987509 14.7455249,0.0943602062 L17.1911722,1.46916632 C17.6228097,1.70969217 17.9104487,2.19091779 17.9104487,2.63788196 L17.9104487,11.2995953 C17.9104487,11.7463855 17.6228097,12.2620465 17.1911722,12.468137 L14.7455249,13.8429431 C14.4937065,13.9805107 14.170068,13.9116399 14.0262485,13.6711141 C13.882429,13.4305882 13.9542492,13.1211916 14.2060676,12.9836241 L16.6515358,11.608818 C16.7235351,11.5743826 16.8313549,11.4025536 16.8313549,11.2994214 L16.8313549,2.63788196 C16.8313549,2.53474976 16.7235351,2.36292073 16.6515358,2.32848536 L14.2058885,0.953679247 C13.9540701,0.816285593 13.8822499,0.506888999 14.0260694,0.266189231 C14.1338892,0.128795578 14.3137083,0.0256633795 14.4935274,0.0256633795 Z M3.88420016,0.266363147 C4.02801962,0.506888999 3.95619944,0.816285593 3.70438105,0.953853163 L1.25873374,2.32865928 C1.18673446,2.36309465 1.07891464,2.53492367 1.07891464,2.63805587 L1.07891464,11.2997692 C1.07891464,11.4029014 1.18673446,11.5747304 1.25873374,11.6091658 L3.70438105,12.9839719 C3.95619944,13.1213656 4.02801962,13.4307621 3.88420016,13.6714619 C3.74038069,13.8088556 3.59656123,13.9119878 3.41674212,13.9119878 C3.34456374,13.9119878 3.23674391,13.8775524 3.16474463,13.8432909 L0.719276425,12.4683109 C0.287638929,12.2277851 0,11.7465594 0,11.2997692 L0,2.63805587 C0,2.19126563 0.287638929,1.67560463 0.719276425,1.46934024 L3.16492373,0.0945341223 C3.41674212,-0.0428595313 3.74038069,0.0258372955 3.88420016,0.266363147 Z M2.98510463,4.18469101 L8.27185799,7.10630619 C8.30785763,7.14074156 8.34367817,7.17500301 8.34367817,7.24387376 L8.34367817,13.0871041 C8.34367817,13.1558009 8.30767853,13.1902363 8.27185799,13.2246717 C8.27185799,13.259107 8.23585835,13.259107 8.19985871,13.259107 C8.16385907,13.2589331 8.12785942,13.2589331 8.12785942,13.2244978 L2.84128516,10.3028826 C2.80528552,10.2684472 2.76928588,10.2341858 2.76928588,10.165315 L2.76928588,4.32225858 C2.76928588,4.25356176 2.80528552,4.21912639 2.84128516,4.18469101 C2.88274947,4.15047317 2.94364031,4.15047317 2.98510463,4.18469101 Z M15.0689844,4.25356176 C15.104984,4.28799713 15.1409837,4.32225858 15.1409837,4.39112933 L15.1409837,10.1999243 C15.1409837,10.2686211 15.104984,10.3030565 15.0689844,10.337318 L9.78241013,13.2587592 L9.71041084,13.2587592 C9.6744112,13.2587592 9.63841156,13.2587592 9.63841156,13.2243238 C9.60241192,13.1898885 9.56659138,13.155627 9.56659138,13.0867563 L9.56659138,7.31257058 C9.56659138,7.24387376 9.60259102,7.20943838 9.63841156,7.17517693 L14.9251649,4.25356176 C14.9666292,4.21934392 15.0275201,4.21934392 15.0689844,4.25356176 Z" id="Shape"></path>
        </g>
    </g>
</svg>