<?xml version="1.0" encoding="UTF-8"?>
<svg width="18px" height="18px" viewBox="0 0 18 18" version="1.1" xmlns="http://www.w3.org/2000/svg" xmlns:xlink="http://www.w3.org/1999/xlink">
    <title>Icons/18px/GCP project@2x</title>
    <g id="Icons/18px/GCP-project" stroke="none" stroke-width="1" fill="none" fill-rule="evenodd">
        <path d="M8.78285773,5.42914247 L7.40964738,7.81881918 C7.28589894,8.03416768 7.05647388,8.16693743 6.80810188,8.16693743 L4.0673199,8.16693743 C3.8189479,8.16693743 3.58952284,8.03416768 3.46577439,7.81881918 L2.09256404,5.42914247 C1.96956872,5.21510456 1.96956872,4.95183287 2.09256404,4.73779496 L3.46577439,2.34811825 C3.58952284,2.13276976 3.8189479,2 4.0673199,2 L6.80810188,2 C7.05647388,2 7.28589894,2.13276976 7.40964738,2.34811825 L8.78285773,4.73779496 C8.90585306,4.95183287 8.90585306,5.21510456 8.78285773,5.42914247 Z M8.78285773,13.262205 L7.40964738,15.6518818 C7.28589894,15.8672302 7.05647388,16 6.80810188,16 L4.0673199,16 C3.8189479,16 3.58952284,15.8672302 3.46577439,15.6518818 L2.09256404,13.262205 C1.96956872,13.0481671 1.96956872,12.7848954 2.09256404,12.5708575 L3.46577439,10.1811808 C3.58952284,9.96583232 3.8189479,9.83306257 4.0673199,9.83306257 L6.80810188,9.83306257 C7.05647388,9.83306257 7.28589894,9.96583232 7.40964738,10.1811808 L8.78285773,12.5708575 C8.90585306,12.7848954 8.90585306,13.0481671 8.78285773,13.262205 Z M15.907436,9.33074568 L14.5342256,11.7204224 C14.4104772,11.9357709 14.1810521,12.0685406 13.9326801,12.0685406 L11.1918981,12.0685406 C10.9435261,12.0685406 10.7141011,11.9357709 10.5903526,11.7204224 L9.21714227,9.33074568 C9.09414694,9.11670778 9.09414694,8.85343608 9.21714227,8.63939818 L10.5903526,6.24972147 C10.7141011,6.03437297 10.9435261,5.90160322 11.1918981,5.90160322 L13.9326801,5.90160322 C14.1810521,5.90160322 14.4104772,6.03437297 14.5342256,6.24972147 L15.907436,8.63939818 C16.0304313,8.85343608 16.0304313,9.11670778 15.907436,9.33074568 Z" id="Polygon-2" fill="#545B71"></path>
    </g>
</svg>