<?xml version="1.0" encoding="UTF-8"?>
<svg width="34px" height="34px" viewBox="0 0 34 34" version="1.1" xmlns="http://www.w3.org/2000/svg" xmlns:xlink="http://www.w3.org/1999/xlink">
    <title>Icons/34px/Apps/Google Org@2x</title>
    <defs>
        <rect id="path-1" x="0" y="0" width="34" height="34" rx="4"></rect>
    </defs>
    <g id="Icons/34px/Apps/Google-Org" stroke="none" stroke-width="1" fill="none" fill-rule="evenodd">
        <mask id="mask-2" fill="white">
            <use xlink:href="#path-1"></use>
        </mask>
        <use id="Mask" fill="#2E3955" fill-rule="nonzero" xlink:href="#path-1"></use>
        <g id="" mask="url(#mask-2)" fill="#FFFFFF" fill-rule="nonzero">
            <g transform="translate(8, 6.25)" id="Shape">
                <path d="M11.8125,10.6875 C11.8125,10.3781254 12.0656254,10.125 12.375,10.125 L13.5,10.125 C13.8093746,10.125 14.0625,10.3781254 14.0625,10.6875 L14.0625,11.8125 C14.0625,12.1218746 13.8093746,12.375 13.5,12.375 L12.375,12.375 C12.0656254,12.375 11.8125,12.1218746 11.8125,11.8125 L11.8125,10.6875 Z M11.8125,3.9375 C11.8125,3.62812543 12.0656254,3.375 12.375,3.375 L13.5,3.375 C13.8093746,3.375 14.0625,3.62812543 14.0625,3.9375 L14.0625,5.0625 C14.0625,5.37187457 13.8093746,5.625 13.5,5.625 L12.375,5.625 C12.0656254,5.625 11.8125,5.37187457 11.8125,5.0625 L11.8125,3.9375 Z M12.375,9 C12.0656254,9 11.8125,8.74687511 11.8125,8.4375 L11.8125,7.3125 C11.8125,7.00312489 12.0656254,6.75 12.375,6.75 L13.5,6.75 C13.8093746,6.75 14.0625,7.00312489 14.0625,7.3125 L14.0625,8.4375 C14.0625,8.74687511 13.8093746,9 13.5,9 L12.375,9 Z M15.75,0 C16.9910152,0 18,1.00722635 18,2.25 L18,15.75 C18,16.9910152 16.9910152,18 15.75,18 L10.125,18 C8.88398427,18 7.875,16.9910152 7.875,15.75 L7.875,2.25 C7.875,1.00722635 8.88398427,0 10.125,0 L15.75,0 Z M15.75,1.6875 L10.125,1.6875 C9.81562543,1.6875 9.5625,1.93921888 9.5625,2.25 L9.5625,15.75 C9.5625,16.0593746 9.81562543,16.3125 10.125,16.3125 L15.75,16.3125 C16.0593746,16.3125 16.3125,16.0593746 16.3125,15.75 L16.3125,2.25 C16.3125,1.93921888 16.0593746,1.6875 15.75,1.6875 Z M6.75,6.1875 L2.53125,6.1875 C2.06542969,6.1875 1.6875,6.5636723 1.6875,7.03125 L1.6875,15.46875 C1.6875,15.9363277 2.06542969,16.3125 2.53125,16.3125 L6.79570323,16.3125 C6.90468729,16.9558589 7.19296896,17.5359371 7.60781229,18 L2.53125,18 C1.13343769,18 0,16.8679683 0,15.46875 L0,7.03125 C0,5.63203168 1.13343769,4.5 2.53125,4.5 L6.75,4.5 L6.75,6.1875 Z M5.0625,11.25 C5.37187511,11.25 5.625,11.5031254 5.625,11.8125 L5.625,12.9375 C5.625,13.2468746 5.37187511,13.5 5.0625,13.5 L3.9375,13.5 C3.62812489,13.5 3.375,13.2468746 3.375,12.9375 L3.375,11.8125 C3.375,11.5031254 3.62812489,11.25 3.9375,11.25 L5.0625,11.25 Z M5.0625,7.875 C5.37187511,7.875 5.625,8.12812489 5.625,8.4375 L5.625,9.5625 C5.625,9.87187457 5.37187511,10.125 5.0625,10.125 L3.9375,10.125 C3.62812489,10.125 3.375,9.87187457 3.375,9.5625 L3.375,8.4375 C3.375,8.12812489 3.62812489,7.875 3.9375,7.875 L5.0625,7.875 Z"></path>
            </g>
        </g>
        <path d="M28.4283353,24.6986178 L25.2359525,21.9365986 C23.4243039,22.1323238 22.5184796,22.2301865 22.5184796,22.2301865 C22.5184796,22.2301865 20.2244591,25.191857 20.2244591,25.191857 C20.2244591,25.191857 19.3206881,27.7881611 19.3206881,27.7881611 C19.3206881,27.7881611 20.4934645,29.5415415 20.4934645,29.5415415 C20.4934645,29.5415415 24,29.9728816 24,29.9728816 C24,29.9728816 28.4283353,29.5415415 28.4283353,29.5415415 C28.4283353,29.5415415 29.6390475,28.3201623 29.6390475,28.3201623 C29.6390475,28.3201623 30.0164513,26.8283504 30.0164513,26.8283504 C30.0164513,26.8283504 29.4870793,26.1184395 28.4283353,24.6986178 Z" id="Path-3" fill="#2E3955" mask="url(#mask-2)"></path>
        <g id="google_cloud-icon" mask="url(#mask-2)" fill-rule="nonzero">
            <g transform="translate(18, 21)" id="Path">
                <path d="M8.272875,2.76379176 L8.68928125,2.77059052 L9.8206875,1.68861694 L9.87553125,1.23018648 C8.978125,0.465617716 7.79329688,0 6.49857813,0 C4.15451563,0 2.17607813,1.52525253 1.59046875,3.59129759 C1.71396875,3.50893551 1.97803125,3.57070707 1.97803125,3.57070707 L4.2388125,3.21522922 C4.2388125,3.21522922 4.355,3.03127428 4.41390625,3.04040404 C4.94845074,2.47878835 5.70587843,2.15879747 6.5,2.15909091 C7.1703125,2.16045066 7.7878125,2.38694639 8.272875,2.76165501 L8.272875,2.76379176 Z" fill="#EA4335"></path>
                <path d="M11.4095312,3.5955711 C11.1468906,2.66899767 10.6055625,1.85081585 9.87492187,1.23018648 L8.272875,2.76223776 C8.91475,3.25757576 9.32648437,4.01554002 9.32648437,4.86402486 L9.32648437,5.13442113 C10.105875,5.13442113 10.7390156,5.74125874 10.7390156,6.48523699 C10.7390156,7.23057498 10.1044531,7.83605284 9.32648437,7.83605284 L6.50142187,7.83605284 L6.21867187,8.10800311 L6.21867187,9.72921523 L6.50142187,9.99825175 L9.32648437,9.99825175 C11.3540721,9.99557704 12.997091,8.42443077 13,6.48543124 C12.9985781,5.28982129 12.3703125,4.23212898 11.4095312,3.59576535 L11.4095312,3.5955711 Z" fill="#4285F4"></path>
                <path d="M3.67351563,10 L6.49695313,10 L6.49695313,7.83605284 L3.67351563,7.83605284 C3.47291919,7.83608576 3.27465931,7.7948804 3.09217188,7.71522922 L2.6845,7.83469308 L1.55309375,8.91666667 L1.45396875,9.28185703 C2.09155478,9.74701084 2.87137352,9.99880126 3.6733125,9.998446 L3.67351563,10 Z" fill="#34A853"></path>
                <path d="M3.67351563,2.97397047 C1.64592789,2.97664518 0.00290902242,4.54779145 0,6.48679099 C0,7.62762238 0.571390625,8.64199689 1.45559375,9.28457653 L3.09359375,7.71814297 C2.58718921,7.49977131 2.26144608,7.01802745 2.26098438,6.48679099 C2.26098438,5.74145299 2.89554688,5.13597514 3.67351563,5.13597514 C4.24632813,5.13597514 4.73870313,5.46620047 4.96132813,5.93240093 L6.59932813,4.36596737 C5.92759375,3.52039627 4.86667188,2.97397047 3.67371875,2.97397047 L3.67351563,2.97397047 Z" fill="#FBBC05"></path>
            </g>
        </g>
    </g>
</svg>