<?xml version="1.0" encoding="UTF-8"?>
<svg width="18px" height="18px" viewBox="0 0 18 18" version="1.1" xmlns="http://www.w3.org/2000/svg" xmlns:xlink="http://www.w3.org/1999/xlink">
    <title>Icons/18px/repositories@2x</title>
    <g id="Icons/18px/repositories" stroke="none" stroke-width="1" fill="none" fill-rule="evenodd">
        <path d="M16,8.79895561 L16,9.16449086 C15.9901305,9.17278851 15.9862559,9.18397389 15.9836971,9.19625587 C15.9413316,9.39865274 15.8326945,9.56106005 15.6879791,9.70551958 C14.5124178,10.8791436 13.338282,12.0541567 12.163671,13.2287311 C11.3379269,14.0545117 10.5118903,14.88 9.68662141,15.7062559 C9.55568668,15.8373734 9.40570757,15.9336919 9.22425587,15.9776292 C9.21906527,15.9788721 9.21190078,15.9799321 9.21296084,15.9888512 C9.22111227,15.9925431 9.22933681,15.9962715 9.23759791,16 L8.77154047,16 C8.78861097,15.9951018 8.80568146,15.9902037 8.82538381,15.9845744 C8.81924282,15.9812846 8.81573368,15.9782141 8.81174935,15.9774099 C8.64250653,15.9431227 8.4990705,15.8616084 8.37709138,15.7405431 C8.08956136,15.4552063 7.8027624,15.1691384 7.51541514,14.8836188 C6.69763969,14.0709974 5.88425065,13.253953 5.06903394,12.4387363 C4.14828721,11.5179896 3.22761358,10.5971697 2.30653786,9.6767154 C2.17300783,9.54325849 2.06437076,9.39583812 2.0228094,9.20674674 C2.01553525,9.17370235 2.00796867,9.20963446 2,9.21018277 C2,9.06093473 2,8.91165013 2,8.76240209 C2.00413055,8.7703342 2.0082611,8.77826632 2.01330548,8.78802611 C2.01579112,8.78228721 2.01820366,8.77855875 2.01908094,8.77450131 C2.05731593,8.59575457 2.15012533,8.44884595 2.27901305,8.3217859 C2.45033943,8.15283551 2.62031332,7.98245953 2.79043342,7.81230287 C4.00090339,6.60175979 5.21137337,5.39128982 6.42089295,4.17979634 C6.45550914,4.14510705 6.4726893,4.16159269 6.49765535,4.1865953 C7.00249608,4.69194778 7.50755614,5.19708094 8.01338381,5.70140992 C8.03992167,5.72787467 8.045953,5.75115927 8.03286684,5.78610444 C7.9670705,5.962 7.94484595,6.14315927 7.9790235,6.32881462 C8.04624543,6.69383812 8.24597389,6.95998433 8.58087728,7.12151436 C8.6172846,7.13906005 8.62905483,7.15890862 8.62901828,7.19743603 C8.62784856,8.38081984 8.62762924,9.56424021 8.62733681,10.747624 C8.62730026,10.8176971 8.6277389,10.8877337 8.6286893,10.9578068 C8.62905483,10.9850392 8.61969713,11.0021828 8.59286684,11.0140992 C8.15586945,11.2078695 7.90518538,11.6775457 7.97690339,12.1489765 C8.05600522,12.6692794 8.54538381,13.1313525 9.19186945,13.0363499 C9.83396867,12.9419687 10.2390183,12.293436 10.0484282,11.6735248 C9.96706005,11.4088042 9.80607833,11.2046527 9.56606789,11.0661149 C9.51544125,11.0369086 9.49281462,11.0036449 9.49910183,10.9462193 C9.50290339,10.9116031 9.49994256,10.8762193 9.49990601,10.841201 C9.49972324,9.64867885 9.49950392,8.4561201 9.49957702,7.26359791 C9.49957702,7.2494517 9.49179112,7.23015144 9.51032376,7.22313316 C9.52538381,7.21746736 9.53390078,7.23307572 9.54344125,7.24265274 C10.0019321,7.70172846 10.460094,8.16106005 10.9198277,8.6188564 C10.9508982,8.64978068 10.9554674,8.67419843 10.9410287,8.71404178 C10.8814465,8.87842298 10.8611593,9.04799478 10.8874778,9.22166057 C10.9793368,9.82753525 11.5463551,10.2313786 12.1459791,10.1184648 C12.894376,9.97758747 13.2563655,9.09544125 12.8225849,8.46960836 C12.5590339,8.08937859 12.1015666,7.92353525 11.6529086,8.04818277 C11.607107,8.06090339 11.5739896,8.0563342 11.5434308,8.02058486 C11.5256658,7.99982245 11.5048668,7.98165535 11.4854935,7.96228198 C11.0212637,7.49816188 10.5575822,7.03353003 10.092,6.5707624 C10.0498172,6.52883551 10.0389243,6.49133159 10.0553734,6.43386945 C10.1175144,6.21641253 10.107718,5.99939426 10.028141,5.78818799 C9.82899739,5.25955091 9.28,4.9830235 8.73597389,5.13512272 C8.70099217,5.14491906 8.67434465,5.14561358 8.64557702,5.11677285 C8.13368146,4.60337859 7.6207624,4.09108094 7.10817232,3.57841775 C7.06672063,3.53696606 7.06701305,3.53462663 7.10656397,3.49511227 C7.51483029,3.08702872 7.92353525,2.67942037 8.3310705,2.2706423 C8.45337859,2.14796867 8.59451175,2.06049608 8.76430287,2.02109138 C8.773953,2.01886162 8.79643342,2.02481984 8.78981723,2 L9.17362924,2 C9.16759791,2.01378068 9.17761358,2.01495039 9.18682507,2.01685117 C9.39240209,2.05896084 9.54991123,2.17889295 9.69451697,2.32368146 C10.9575875,3.58817755 12.2216084,4.85172324 13.4853734,6.11556136 C14.2195144,6.8497389 14.9534726,7.58406266 15.6881253,8.31772846 C15.7982611,8.42775457 15.8905587,8.54911227 15.9459008,8.69572846 C15.9616919,8.73747258 15.9723655,8.78115405 15.986658,8.82812533 C15.9925796,8.81518538 15.9962715,8.8070705 16,8.79895561" id="Fill-1" fill="#545B71"></path>
    </g>
</svg>